<svg width="26" height="25" viewBox="0 0 26 25" fill="none" xmlns="http://www.w3.org/2000/svg">
<path id="Vector" d="M24.0576 12.5C24.0576 6.39326 19.1067 1.4423 12.9999 1.4423C6.89321 1.4423 1.94225 6.39326 1.94225 12.5C1.94225 18.6067 6.89321 23.5577 12.9999 23.5577C19.1067 23.5577 24.0576 18.6067 24.0576 12.5ZM25.4999 12.5C25.4999 19.4038 19.9038 25 12.9999 25C6.09609 25 0.499939 19.4038 0.499939 12.5C0.499939 5.59615 6.09609 -7.62939e-06 12.9999 -7.62939e-06C19.9038 -7.62939e-06 25.4999 5.59615 25.4999 12.5ZM6.72975 12.5H6.8759C7.16628 12.5 7.32878 12.825 7.16725 13.0683C6.59032 13.9336 6.25282 14.9692 6.25282 16.0808V16.5586C6.25282 16.675 6.25955 16.7894 6.27302 16.9019C6.29802 17.1173 6.13648 17.3077 5.92013 17.3077H5.4259C4.56532 17.3077 3.86532 16.5865 3.86532 15.699C3.86532 13.9346 5.04513 12.5 6.72975 12.5ZM19.2701 12.5C20.9557 12.5 22.1346 13.9346 22.1346 15.699C22.1346 16.5865 21.4346 17.3077 20.5749 17.3077H20.0807C19.8644 17.3077 19.7019 17.1173 19.7278 16.9019C19.7403 16.7894 19.7471 16.675 19.7471 16.5586V16.0808C19.7471 14.9692 19.4105 13.9336 18.8336 13.0683C18.6721 12.825 18.8336 12.5 19.124 12.5H19.2701ZM7.47109 11.5385C6.41052 11.5385 5.54802 10.5683 5.54802 9.37499C5.54802 8.06153 6.30282 7.21153 7.47109 7.21153C8.63936 7.21153 9.39417 8.06153 9.39417 9.37499C9.39417 10.5683 8.53167 11.5385 7.47109 11.5385ZM18.5288 11.5385C17.4682 11.5385 16.6057 10.5683 16.6057 9.37499C16.6057 8.06153 17.3605 7.21153 18.5288 7.21153C19.6971 7.21153 20.4519 8.06153 20.4519 9.37499C20.4519 10.5683 19.5894 11.5385 18.5288 11.5385ZM14.1269 12.0192C16.4211 12.0192 18.2884 13.8413 18.2884 16.0808V16.5586C18.2884 17.5019 17.5028 18.2692 16.5355 18.2692H9.46436C8.49705 18.2692 7.71148 17.5019 7.71148 16.5586V16.0808C7.71148 13.8413 9.57782 12.0192 11.873 12.0192H14.1269ZM15.6442 7.6923C15.6442 9.28365 14.4586 10.5769 12.9999 10.5769C11.5422 10.5769 10.3557 9.28365 10.3557 7.6923C10.3557 5.91345 11.3692 4.80768 12.9999 4.80768C14.6317 4.80768 15.6442 5.91345 15.6442 7.6923Z" fill="white"/>
</svg>
