<svg width="26" height="25" viewBox="0 0 26 25" fill="none" xmlns="http://www.w3.org/2000/svg">
<path id="Vector" d="M16.75 22.7269H21.3035C21.7471 22.7269 22.1071 22.3669 22.1071 21.9233V12.2805H22.1403C21.9614 12.1915 21.7921 12.0822 21.6368 11.9526L21.2071 11.5937C21.1075 11.5122 20.9639 11.5122 20.8643 11.5947L20.6885 11.7415C20.0618 12.2622 19.2732 12.5483 18.4589 12.5483H18.2167C17.4078 12.5483 16.6235 12.2665 16 11.7512L15.8028 11.5883C15.7032 11.5069 15.5607 11.5069 15.4621 11.5883L15.2639 11.7522C14.6393 12.2665 13.855 12.5483 13.0471 12.5483H12.9003C12.1021 12.5483 11.3275 12.274 10.7082 11.7715L10.4768 11.584C10.3771 11.5037 10.2346 11.5047 10.1371 11.5862L9.95175 11.7415C9.32496 12.2633 8.53639 12.5483 7.72211 12.5483H7.53139C6.72461 12.5483 5.94354 12.2687 5.31996 11.7565L5.11211 11.5851C5.01246 11.5037 4.87104 11.5037 4.77139 11.5851L4.26675 12.0008C4.13496 12.109 3.99139 12.2033 3.84139 12.2805H3.89282V21.9233C3.89282 22.3669 4.25282 22.7269 4.69639 22.7269H9.24996V16.0305C9.24996 15.2912 9.84996 14.6912 10.5893 14.6912H15.4107C16.15 14.6912 16.75 15.2912 16.75 16.0305V22.7269ZM1.93532 6.65545H24.0646C24.0357 6.55903 24.0046 6.46367 23.9693 6.36938L22.736 3.01795C22.4532 2.30331 21.7621 1.83403 20.9939 1.83403H5.00711C4.23782 1.83403 3.54675 2.30331 3.27032 2.99974L2.03068 6.36938C1.99532 6.46367 1.96425 6.55903 1.93532 6.65545ZM24.25 8.2626H1.74997V10.1376C1.74997 10.5812 2.10997 10.9412 2.55354 10.9412H2.73675C2.92318 10.9412 3.10318 10.8769 3.24675 10.759L3.75139 10.3444C4.44246 9.77545 5.44104 9.77545 6.13211 10.3444L6.33996 10.5147C6.67532 10.7901 7.09639 10.9412 7.53139 10.9412H7.72211C8.16032 10.9412 8.58568 10.788 8.92211 10.5072L9.10854 10.3519C9.79639 9.77867 10.7939 9.77224 11.4882 10.3358L11.7196 10.5222C12.0539 10.7933 12.4707 10.9412 12.9003 10.9412H13.0471C13.4821 10.9412 13.9043 10.789 14.2407 10.5126L14.4389 10.3487C15.131 9.77653 16.1328 9.77653 16.826 10.3487L17.0232 10.5126C17.3585 10.789 17.7807 10.9412 18.2167 10.9412H18.4589C18.8971 10.9412 19.3225 10.7869 19.66 10.5062L19.8357 10.3605C20.53 9.77974 21.5414 9.77974 22.2357 10.3594L22.6664 10.7183C22.8389 10.8619 23.0575 10.9412 23.2835 10.9412C23.8182 10.9412 24.25 10.5094 24.25 9.97688V8.2626ZM23.7143 12.513V21.9233C23.7143 23.2551 22.6353 24.334 21.3035 24.334H4.69639C3.36461 24.334 2.28568 23.2551 2.28568 21.9233V12.5333C1.08032 12.4005 0.142822 11.3783 0.142822 10.1376V7.94224C0.142822 7.21474 0.271394 6.49474 0.522108 5.81331L1.76925 2.42545C2.29639 1.09795 3.57889 0.226883 5.00711 0.226883H20.9939C22.421 0.226883 23.7035 1.09795 24.2371 2.44367L25.4778 5.81331C25.7285 6.49474 25.8571 7.21474 25.8571 7.94224V9.97688C25.8571 11.2508 24.9303 12.3083 23.7143 12.513ZM15.1428 22.7269V16.2983H10.8571V22.7269H15.1428Z" fill="white"/>
</svg>
