<svg width="25" height="25" viewBox="0 0 25 25" fill="none" xmlns="http://www.w3.org/2000/svg">
<g id="Group 43">
<rect id="Rectangle 20" x="-6.10352e-05" width="25" height="25" rx="5" fill="#D9D9D9"/>
<g id="RF">
<path d="M10.376 17.8L8.402 14.398H6.932V17.8H5V7.99998H8.92C9.82533 7.99998 10.5953 8.31732 11.23 8.95199C11.8647 9.58665 12.182 10.352 12.182 11.248C12.182 11.8547 12.0093 12.4193 11.664 12.942C11.3187 13.4553 10.8613 13.8427 10.292 14.104L12.462 17.8H10.376ZM6.932 9.80598V12.704H8.92C9.284 12.704 9.59667 12.564 9.858 12.284C10.1193 11.9947 10.25 11.6493 10.25 11.248C10.25 10.8467 10.1193 10.506 9.858 10.226C9.59667 9.94598 9.284 9.80598 8.92 9.80598H6.932Z" fill="#1D1C24"/>
<path d="M19.8716 9.84799H15.9516V12.172H19.7596V14.02H15.9516V17.8H14.0196V7.99998H19.8716V9.84799Z" fill="#1D1C24"/>
</g>
</g>
</svg>
