<svg width="25" height="25" viewBox="0 0 25 25" fill="none" xmlns="http://www.w3.org/2000/svg">
<g id="Group 43">
<rect id="Rectangle 20" x="-6.10352e-05" width="25" height="25" rx="5" fill="#D9D9D9"/>
<g id="TC">
<path d="M11.2099 8.196V10.044H8.56394V17.996H6.63194V10.044H3.99994V8.196H11.2099Z" fill="#1D1C24"/>
<path d="M16.7959 18.192C15.3213 18.192 14.1033 17.702 13.1419 16.722C12.1806 15.742 11.6999 14.5333 11.6999 13.096C11.6999 11.6493 12.1806 10.4407 13.1419 9.47C14.1033 8.49 15.3213 8 16.7959 8C17.6826 8 18.4993 8.21 19.2459 8.63C20.0019 9.04067 20.5899 9.60067 21.0099 10.31L19.3439 11.276C19.1013 10.8373 18.7559 10.4967 18.3079 10.254C17.8599 10.002 17.3559 9.876 16.7959 9.876C15.8439 9.876 15.0739 10.1747 14.4859 10.772C13.9073 11.3693 13.6179 12.144 13.6179 13.096C13.6179 14.0387 13.9073 14.8087 14.4859 15.406C15.0739 16.0033 15.8439 16.302 16.7959 16.302C17.3559 16.302 17.8599 16.1807 18.3079 15.938C18.7653 15.686 19.1106 15.3453 19.3439 14.916L21.0099 15.882C20.5899 16.5913 20.0066 17.156 19.2599 17.576C18.5133 17.9867 17.6919 18.192 16.7959 18.192Z" fill="#1D1C24"/>
</g>
</g>
</svg>
