<svg width="26" height="25" viewBox="0 0 26 25" fill="none" xmlns="http://www.w3.org/2000/svg">
<path id="Vector" d="M7.37502 24.5535C6.93145 24.5535 6.57145 24.1935 6.57145 23.75C6.57145 23.3064 6.93145 22.9464 7.37502 22.9464H18.625C19.0686 22.9464 19.4286 23.3064 19.4286 23.75C19.4286 24.1935 19.0686 24.5535 18.625 24.5535H7.37502ZM16.3889 11.2635L10.9161 14.5603C10.4189 14.8593 9.78573 14.5025 9.78573 13.9218V7.32712C9.78573 6.74747 10.4189 6.38962 10.9161 6.68855L16.3889 9.9864C16.87 10.2757 16.87 10.9732 16.3889 11.2635ZM21.3036 19.1964C22.6343 19.1964 23.7143 18.1164 23.7143 16.7857V4.46426C23.7143 3.13354 22.6343 2.05354 21.3036 2.05354H4.69645C3.36573 2.05354 2.28573 3.13354 2.28573 4.46426V16.7857C2.28573 18.1164 3.36573 19.1964 4.69645 19.1964H21.3036ZM21.3036 20.8035H4.69645C2.47752 20.8035 0.678589 19.0046 0.678589 16.7857V4.46426C0.678589 2.24533 2.47752 0.446402 4.69645 0.446402H21.3036C23.5225 0.446402 25.3214 2.24533 25.3214 4.46426V16.7857C25.3214 19.0046 23.5225 20.8035 21.3036 20.8035Z" fill="white"/>
</svg>
