<svg width="22" height="22" viewBox="0 0 22 22" fill="none" xmlns="http://www.w3.org/2000/svg">
<g id="like" clip-path="url(#clip0_201_31)">
<path id="Vector" d="M10.739 0.53418C7.8925 0.53418 5.16254 1.66496 3.14973 3.67778C1.13692 5.69059 0.00613403 8.42054 0.00613403 11.2671C0.00613403 14.1136 1.13692 16.8436 3.14973 18.8565C5.16254 20.8691 7.8925 22 10.739 22C13.5855 22 16.3156 20.8691 18.3284 18.8565C20.3411 16.8436 21.4719 14.1136 21.4719 11.2671C21.4719 8.42054 20.3411 5.69059 18.3284 3.67778C16.3156 1.66496 13.5855 0.53418 10.739 0.53418Z" fill="url(#paint0_linear_201_31)"/>
<path id="Vector_2" d="M16.3228 10.3789C16.559 10.544 16.7763 10.7076 16.7763 11.2832C16.7763 11.8601 16.4691 12.0935 16.1404 12.2559C16.2747 12.4749 16.3176 12.738 16.2598 12.9884C16.1565 13.4499 15.7339 13.8081 15.3582 13.9141C15.5206 14.1744 15.5715 14.4306 15.3783 14.7459C15.1301 15.1417 14.9141 15.2919 13.9589 15.2919H10.0682C8.74272 15.2919 8.05581 14.5594 8.05581 13.9503V10.8176C8.05581 9.16746 10.024 7.76548 10.024 6.6184L9.88175 5.18958C9.87504 5.10237 9.89248 4.88906 9.95956 4.82734C10.0669 4.72136 10.3634 4.55902 10.8115 4.55902C11.104 4.55902 11.2985 4.61403 11.5279 4.72404C12.3074 5.09567 12.51 6.03614 12.51 6.79281C12.51 7.15638 11.9545 8.24577 11.8794 8.62277C11.8794 8.62277 13.0426 8.36518 14.4003 8.35579C15.8238 8.34774 16.7468 8.61069 16.7468 9.48542C16.7468 9.83559 16.453 10.1871 16.3228 10.3789ZM4.83594 9.92547H5.90923C6.12272 9.92547 6.32747 10.0103 6.47843 10.1612C6.6294 10.3122 6.7142 10.517 6.7142 10.7304V15.8286C6.7142 16.042 6.6294 16.2468 6.47843 16.3978C6.32747 16.5487 6.12272 16.6335 5.90923 16.6335H4.83594C4.62245 16.6335 4.41771 16.5487 4.26675 16.3978C4.11578 16.2468 4.03098 16.042 4.03098 15.8286V10.7304C4.03098 10.517 4.11578 10.3122 4.26675 10.1612C4.41771 10.0103 4.62245 9.92547 4.83594 9.92547Z" fill="white"/>
</g>
<defs>
<linearGradient id="paint0_linear_201_31" x1="10.739" y1="0.53418" x2="10.739" y2="22" gradientUnits="userSpaceOnUse">
<stop stop-color="#18AFFF"/>
<stop offset="1" stop-color="#0062DF"/>
</linearGradient>
<clipPath id="clip0_201_31">
<rect width="21.4658" height="21.4658" fill="white" transform="translate(0.00613403 0.53418)"/>
</clipPath>
</defs>
</svg>
