<svg width="20" height="21" viewBox="0 0 20 21" fill="none" xmlns="http://www.w3.org/2000/svg">
<g id="Frame">
<path id="Vector" d="M5.60502 17.2049C6.57645 17.2049 8.1736 17.1157 10.3336 16.7178C9.96003 17.7335 8.98645 18.4614 7.84288 18.4614C6.89217 18.4614 6.05931 17.9578 5.58931 17.2049H5.60502ZM17.8022 11.6635C17.9786 12.5721 17.3415 13.3757 15.9072 14.0535C15.1215 14.4242 13.3743 15.1299 10.4886 15.6914C8.26288 16.1235 6.63217 16.2228 5.60574 16.2228C5.30074 16.2228 5.0486 16.2142 4.85002 16.2028C3.26717 16.1121 2.37431 15.6049 2.19788 14.6964C1.93002 13.3199 2.3536 12.7885 3.05574 11.9085L3.24074 11.6764C3.71431 11.0757 3.89931 10.4857 3.59645 8.92923C2.9186 5.44351 4.4886 3.06137 7.90288 2.39423C11.3186 1.73494 13.6672 3.35351 14.345 6.83994C14.6472 8.39637 15.04 8.87351 15.7043 9.2528V9.25351L15.9629 9.39994C16.9429 9.9528 17.5343 10.2864 17.8022 11.6635Z" fill="white"/>
</g>
</svg>
