<svg width="31" height="30" viewBox="0 0 31 30" fill="none" xmlns="http://www.w3.org/2000/svg">
<g id="Frame">
<path id="Vector" d="M27.4679 15C27.4679 8.1954 21.9511 2.67861 15.1465 2.67861C8.34184 2.67861 2.82505 8.1954 2.82505 15C2.82505 21.8047 8.34184 27.3215 15.1465 27.3215C21.9511 27.3215 27.4679 21.8047 27.4679 15ZM29.0751 15C29.0751 22.6929 22.8393 28.9286 15.1465 28.9286C7.45363 28.9286 1.21791 22.6929 1.21791 15C1.21791 7.30719 7.45363 1.07147 15.1465 1.07147C22.8393 1.07147 29.0751 7.30719 29.0751 15ZM8.1597 15H8.32255C8.64612 15 8.8272 15.3622 8.6472 15.6333C8.00434 16.5975 7.62827 17.7515 7.62827 18.99V19.5225C7.62827 19.6522 7.63577 19.7797 7.65077 19.905C7.67863 20.145 7.49862 20.3572 7.25755 20.3572H6.70684C5.74791 20.3572 4.96791 19.5536 4.96791 18.5647C4.96791 16.5986 6.28255 15 8.1597 15ZM22.1333 15C24.0115 15 25.3251 16.5986 25.3251 18.5647C25.3251 19.5536 24.5451 20.3572 23.5872 20.3572H23.0365C22.7954 20.3572 22.6143 20.145 22.6433 19.905C22.6572 19.7797 22.6647 19.6522 22.6647 19.5225V18.99C22.6647 17.7515 22.2897 16.5975 21.6468 15.6333C21.4668 15.3622 21.6468 15 21.9704 15H22.1333ZM8.98577 13.9286C7.80398 13.9286 6.84291 12.8475 6.84291 11.5179C6.84291 10.0543 7.68398 9.10719 8.98577 9.10719C10.2876 9.10719 11.1286 10.0543 11.1286 11.5179C11.1286 12.8475 10.1676 13.9286 8.98577 13.9286ZM21.3072 13.9286C20.1254 13.9286 19.1643 12.8475 19.1643 11.5179C19.1643 10.0543 20.0054 9.10719 21.3072 9.10719C22.609 9.10719 23.4501 10.0543 23.4501 11.5179C23.4501 12.8475 22.489 13.9286 21.3072 13.9286ZM16.4022 14.4643C18.9586 14.4643 21.0393 16.4947 21.0393 18.99V19.5225C21.0393 20.5736 20.164 21.4286 19.0861 21.4286H11.2068C10.129 21.4286 9.25362 20.5736 9.25362 19.5225V18.99C9.25362 16.4947 11.3333 14.4643 13.8908 14.4643H16.4022ZM18.0929 9.6429C18.0929 11.4161 16.7718 12.8572 15.1465 12.8572C13.5222 12.8572 12.2001 11.4161 12.2001 9.6429C12.2001 7.66076 13.3293 6.42861 15.1465 6.42861C16.9647 6.42861 18.0929 7.66076 18.0929 9.6429Z" fill="white"/>
</g>
</svg>
