<svg width="27" height="26" viewBox="0 0 27 26" fill="none" xmlns="http://www.w3.org/2000/svg">
<path d="M25.9626 11.1679C25.9626 11.1679 25.9605 11.1658 25.9583 11.1636L14.3933 1.14683C14.0987 0.866111 13.713 0.707539 13.2812 0.701111C12.873 0.707539 12.4873 0.866111 12.2226 1.12004L0.623323 11.1679C0.174395 11.5622 0.0383234 12.1911 0.294395 12.7418C0.520466 13.2304 1.04332 13.5133 1.58118 13.5133H3.65011V23.424C3.65011 24.459 4.49011 25.299 5.52511 25.299H10.0787C10.6701 25.299 11.1501 24.819 11.1501 24.2275V17.6168C11.1501 17.4208 11.3087 17.2633 11.5037 17.2633H15.0823C15.2773 17.2633 15.4358 17.4208 15.4358 17.6168V24.2275C15.4358 24.819 15.9158 25.299 16.5073 25.299H21.0608C22.0969 25.299 22.9358 24.459 22.9358 23.424V13.5133H25.0048C25.5426 13.5133 26.0655 13.2304 26.2915 12.7418C26.5476 12.1911 26.4115 11.5622 25.9626 11.1679Z" fill="white"/>
</svg>
