<svg width="31" height="30" viewBox="0 0 31 30" fill="none" xmlns="http://www.w3.org/2000/svg">
<g id="Frame">
<path id="Vector" d="M18.8965 25.4465H23.45C23.8936 25.4465 24.2536 25.0865 24.2536 24.6429V15H24.2868C24.1079 14.9111 23.9386 14.8018 23.7833 14.6722L23.3536 14.3133C23.254 14.2318 23.1104 14.2318 23.0108 14.3143L22.835 14.4611C22.2083 14.9818 21.4197 15.2679 20.6054 15.2679H20.3633C19.5543 15.2679 18.77 14.9861 18.1465 14.4708L17.9493 14.3079C17.8497 14.2265 17.7072 14.2265 17.6086 14.3079L17.4104 14.4718C16.7858 14.9861 16.0015 15.2679 15.1936 15.2679H15.0468C14.2486 15.2679 13.474 14.9936 12.8547 14.4911L12.6233 14.3036C12.5236 14.2233 12.3811 14.2243 12.2836 14.3058L12.0983 14.4611C11.4715 14.9829 10.6829 15.2679 9.86861 15.2679H9.6779C8.87111 15.2679 8.09004 14.9883 7.46647 14.4761L7.25861 14.3047C7.15897 14.2233 7.01754 14.2233 6.9179 14.3047L6.41325 14.7204C6.28147 14.8286 6.1379 14.9229 5.9879 15H6.03933V24.6429C6.03933 25.0865 6.39933 25.4465 6.8429 25.4465H11.3965V18.75C11.3965 18.0108 11.9965 17.4108 12.7358 17.4108H17.5572C18.2965 17.4108 18.8965 18.0108 18.8965 18.75V25.4465ZM4.08183 9.37504H26.2111C26.1822 9.27861 26.1511 9.18326 26.1158 9.08897L24.8825 5.73754C24.5997 5.0229 23.9086 4.55361 23.1404 4.55361H7.15361C6.38433 4.55361 5.69325 5.0229 5.41683 5.71933L4.17718 9.08897C4.14183 9.18326 4.11075 9.27861 4.08183 9.37504ZM26.3965 10.9822H3.89647V12.8572C3.89647 13.3008 4.25647 13.6608 4.70004 13.6608H4.88325C5.06968 13.6608 5.24968 13.5965 5.39325 13.4786L5.8979 13.064C6.58897 12.495 7.58754 12.495 8.27861 13.064L8.48647 13.2343C8.82183 13.5097 9.2429 13.6608 9.6779 13.6608H9.86861C10.3068 13.6608 10.7322 13.5075 11.0686 13.2268L11.255 13.0715C11.9429 12.4983 12.9404 12.4918 13.6347 13.0554L13.8661 13.2418C14.2004 13.5129 14.6172 13.6608 15.0468 13.6608H15.1936C15.6286 13.6608 16.0508 13.5086 16.3872 13.2322L16.5854 13.0683C17.2775 12.4961 18.2793 12.4961 18.9725 13.0683L19.1697 13.2322C19.505 13.5086 19.9272 13.6608 20.3633 13.6608H20.6054C21.0436 13.6608 21.469 13.5065 21.8065 13.2258L21.9822 13.08C22.6765 12.4993 23.6879 12.4993 24.3822 13.079L24.8129 13.4379C24.9854 13.5815 25.204 13.6608 25.43 13.6608C25.9647 13.6608 26.3965 13.229 26.3965 12.6965V10.9822ZM25.8608 15.2325V24.6429C25.8608 25.9747 24.7818 27.0536 23.45 27.0536H6.8429C5.51111 27.0536 4.43218 25.9747 4.43218 24.6429V15.2529C3.22683 15.12 2.28933 14.0979 2.28933 12.8572V10.6618C2.28933 9.93433 2.4179 9.21433 2.66861 8.5329L3.91575 5.14504C4.4429 3.81754 5.7254 2.94647 7.15361 2.94647H23.1404C24.5675 2.94647 25.85 3.81754 26.3836 5.16326L27.6243 8.5329C27.875 9.21433 28.0036 9.93433 28.0036 10.6618V12.6965C28.0036 13.9704 27.0768 15.0279 25.8608 15.2325ZM17.2893 25.4465V19.0179H13.0036V25.4465H17.2893Z" fill="white"/>
</g>
</svg>
