<svg width="20" height="21" viewBox="0 0 20 21" fill="none" xmlns="http://www.w3.org/2000/svg">
<g id="Frame">
<path id="Vector" d="M10 1.88635C14.8286 1.88635 18.5714 5.4235 18.5714 10.2006C18.5714 14.9778 14.8286 18.5149 10 18.5149C9.16184 18.5169 8.32722 18.4061 7.51858 18.1856C7.36666 18.1437 7.20489 18.1555 7.06072 18.2192L5.35715 18.9699C5.25434 19.0152 5.14199 19.0346 5.02996 19.0263C4.91792 19.0181 4.80962 18.9825 4.71456 18.9226C4.6195 18.8627 4.54059 18.7804 4.48475 18.683C4.42891 18.5855 4.39785 18.4758 4.39429 18.3635L4.34786 16.8392C4.34471 16.7464 4.3227 16.6552 4.28315 16.5713C4.24361 16.4873 4.18737 16.4122 4.11786 16.3506C3.25787 15.5759 2.57311 14.6265 2.10935 13.5659C1.64559 12.5054 1.4135 11.3581 1.42858 10.2006C1.42858 5.4235 5.17143 1.88635 10 1.88635ZM4.85286 12.6321C4.80193 12.7128 4.78095 12.8088 4.79359 12.9034C4.80624 12.9979 4.8517 13.0851 4.92205 13.1495C4.99239 13.214 5.08315 13.2517 5.17847 13.2561C5.27379 13.2605 5.36762 13.2313 5.44358 13.1735L8.14786 11.1206C8.23723 11.0534 8.34603 11.0171 8.45786 11.0171C8.56969 11.0171 8.67849 11.0534 8.76786 11.1206L10.7679 12.6206C10.9099 12.7269 11.0725 12.8025 11.2452 12.8429C11.4179 12.8832 11.5972 12.8874 11.7716 12.8551C11.946 12.8229 12.1119 12.7549 12.2588 12.6554C12.4056 12.5559 12.5303 12.4271 12.625 12.2771L15.1429 8.28278C15.1938 8.20209 15.2148 8.10608 15.2021 8.01149C15.1895 7.91691 15.144 7.82978 15.0737 7.76531C15.0033 7.70083 14.9126 7.66311 14.8173 7.65873C14.7219 7.65436 14.6281 7.6836 14.5521 7.74135L11.8479 9.79421C11.7585 9.86143 11.6497 9.89778 11.5379 9.89778C11.426 9.89778 11.3172 9.86143 11.2279 9.79421L9.22786 8.29421C9.08579 8.18799 8.92327 8.11233 8.75052 8.07197C8.57778 8.03161 8.39856 8.02743 8.22413 8.0597C8.0497 8.09197 7.88383 8.15999 7.73696 8.25948C7.59009 8.35896 7.4654 8.48777 7.37072 8.63778L4.85286 12.6321Z" fill="white"/>
</g>
</svg>
