<svg width="20" height="21" viewBox="0 0 20 21" fill="none" xmlns="http://www.w3.org/2000/svg">
<g id="Frame" clip-path="url(#clip0_1_464)">
<path id="Vector" d="M3.18183 6.3369C4.68806 6.3369 5.90911 5.11586 5.90911 3.60963C5.90911 2.1034 4.68806 0.882355 3.18183 0.882355C1.6756 0.882355 0.454559 2.1034 0.454559 3.60963C0.454559 5.11586 1.6756 6.3369 3.18183 6.3369Z" fill="white"/>
<path id="Vector_2" d="M10 6.3369C11.5062 6.3369 12.7273 5.11586 12.7273 3.60963C12.7273 2.1034 11.5062 0.882355 10 0.882355C8.49378 0.882355 7.27274 2.1034 7.27274 3.60963C7.27274 5.11586 8.49378 6.3369 10 6.3369Z" fill="white"/>
<path id="Vector_3" d="M16.8182 6.3369C18.3244 6.3369 19.5455 5.11586 19.5455 3.60963C19.5455 2.1034 18.3244 0.882355 16.8182 0.882355C15.312 0.882355 14.0909 2.1034 14.0909 3.60963C14.0909 5.11586 15.312 6.3369 16.8182 6.3369Z" fill="white"/>
<path id="Vector_4" d="M3.18183 13.1551C4.68806 13.1551 5.90911 11.934 5.90911 10.4278C5.90911 8.92157 4.68806 7.70053 3.18183 7.70053C1.6756 7.70053 0.454559 8.92157 0.454559 10.4278C0.454559 11.934 1.6756 13.1551 3.18183 13.1551Z" fill="white"/>
<path id="Vector_5" d="M10 13.1551C11.5062 13.1551 12.7273 11.934 12.7273 10.4278C12.7273 8.92157 11.5062 7.70053 10 7.70053C8.49378 7.70053 7.27274 8.92157 7.27274 10.4278C7.27274 11.934 8.49378 13.1551 10 13.1551Z" fill="white"/>
<path id="Vector_6" d="M16.8182 13.1551C18.3244 13.1551 19.5455 11.934 19.5455 10.4278C19.5455 8.92157 18.3244 7.70053 16.8182 7.70053C15.312 7.70053 14.0909 8.92157 14.0909 10.4278C14.0909 11.934 15.312 13.1551 16.8182 13.1551Z" fill="white"/>
<path id="Vector_7" d="M3.18183 19.9733C4.68806 19.9733 5.90911 18.7522 5.90911 17.246C5.90911 15.7397 4.68806 14.5187 3.18183 14.5187C1.6756 14.5187 0.454559 15.7397 0.454559 17.246C0.454559 18.7522 1.6756 19.9733 3.18183 19.9733Z" fill="white"/>
<path id="Vector_8" d="M10 19.9733C11.5062 19.9733 12.7273 18.7522 12.7273 17.246C12.7273 15.7397 11.5062 14.5187 10 14.5187C8.49378 14.5187 7.27274 15.7397 7.27274 17.246C7.27274 18.7522 8.49378 19.9733 10 19.9733Z" fill="white"/>
<path id="Vector_9" d="M16.8182 19.9733C18.3244 19.9733 19.5455 18.7522 19.5455 17.246C19.5455 15.7397 18.3244 14.5187 16.8182 14.5187C15.312 14.5187 14.0909 15.7397 14.0909 17.246C14.0909 18.7522 15.312 19.9733 16.8182 19.9733Z" fill="white"/>
</g>
<defs>
<clipPath id="clip0_1_464">
<rect width="20" height="20" fill="white" transform="translate(0 0.427795)"/>
</clipPath>
</defs>
</svg>
