<svg width="40" height="41" viewBox="0 0 40 41" fill="none" xmlns="http://www.w3.org/2000/svg">
<circle cx="20" cy="20.4278" r="20" fill="white" fill-opacity="0.1"/>
<g clip-path="url(#clip0_15_166)">
<path d="M13.1818 16.3369C14.6881 16.3369 15.9091 15.1159 15.9091 13.6096C15.9091 12.1034 14.6881 10.8824 13.1818 10.8824C11.6756 10.8824 10.4546 12.1034 10.4546 13.6096C10.4546 15.1159 11.6756 16.3369 13.1818 16.3369Z" fill="white"/>
<path d="M20 16.3369C21.5062 16.3369 22.7273 15.1159 22.7273 13.6096C22.7273 12.1034 21.5062 10.8824 20 10.8824C18.4938 10.8824 17.2727 12.1034 17.2727 13.6096C17.2727 15.1159 18.4938 16.3369 20 16.3369Z" fill="white"/>
<path d="M26.8182 16.3369C28.3244 16.3369 29.5455 15.1159 29.5455 13.6096C29.5455 12.1034 28.3244 10.8824 26.8182 10.8824C25.312 10.8824 24.0909 12.1034 24.0909 13.6096C24.0909 15.1159 25.312 16.3369 26.8182 16.3369Z" fill="white"/>
<path d="M13.1818 23.1551C14.6881 23.1551 15.9091 21.934 15.9091 20.4278C15.9091 18.9216 14.6881 17.7005 13.1818 17.7005C11.6756 17.7005 10.4546 18.9216 10.4546 20.4278C10.4546 21.934 11.6756 23.1551 13.1818 23.1551Z" fill="white"/>
<path d="M20 23.1551C21.5062 23.1551 22.7273 21.934 22.7273 20.4278C22.7273 18.9216 21.5062 17.7005 20 17.7005C18.4938 17.7005 17.2727 18.9216 17.2727 20.4278C17.2727 21.934 18.4938 23.1551 20 23.1551Z" fill="white"/>
<path d="M26.8182 23.1551C28.3244 23.1551 29.5455 21.934 29.5455 20.4278C29.5455 18.9216 28.3244 17.7005 26.8182 17.7005C25.312 17.7005 24.0909 18.9216 24.0909 20.4278C24.0909 21.934 25.312 23.1551 26.8182 23.1551Z" fill="white"/>
<path d="M13.1818 29.9733C14.6881 29.9733 15.9091 28.7522 15.9091 27.246C15.9091 25.7397 14.6881 24.5187 13.1818 24.5187C11.6756 24.5187 10.4546 25.7397 10.4546 27.246C10.4546 28.7522 11.6756 29.9733 13.1818 29.9733Z" fill="white"/>
<path d="M20 29.9733C21.5062 29.9733 22.7273 28.7522 22.7273 27.246C22.7273 25.7397 21.5062 24.5187 20 24.5187C18.4938 24.5187 17.2727 25.7397 17.2727 27.246C17.2727 28.7522 18.4938 29.9733 20 29.9733Z" fill="white"/>
<path d="M26.8182 29.9733C28.3244 29.9733 29.5455 28.7522 29.5455 27.246C29.5455 25.7397 28.3244 24.5187 26.8182 24.5187C25.312 24.5187 24.0909 25.7397 24.0909 27.246C24.0909 28.7522 25.312 29.9733 26.8182 29.9733Z" fill="white"/>
</g>
<defs>
<clipPath id="clip0_15_166">
<rect width="20" height="20" fill="white" transform="translate(10 10.4278)"/>
</clipPath>
</defs>
</svg>
