<svg width="48" height="49" viewBox="0 0 48 49" fill="none" xmlns="http://www.w3.org/2000/svg">
<g filter="url(#filter0_d_15_179)">
<circle cx="24" cy="20.4278" r="20" fill="white" fill-opacity="0.1"/>
<path d="M24 11.8864C28.8286 11.8864 32.5714 15.4235 32.5714 20.2006C32.5714 24.9778 28.8286 28.5149 24 28.5149C23.1618 28.5169 22.3272 28.4061 21.5186 28.1856C21.3667 28.1437 21.2049 28.1555 21.0607 28.2192L19.3571 28.9699C19.2543 29.0152 19.142 29.0346 19.03 29.0263C18.9179 29.0181 18.8096 28.9825 18.7146 28.9226C18.6195 28.8627 18.5406 28.7804 18.4847 28.683C18.4289 28.5855 18.3978 28.4758 18.3943 28.3635L18.3479 26.8392C18.3447 26.7464 18.3227 26.6552 18.2832 26.5713C18.2436 26.4873 18.1874 26.4122 18.1179 26.3506C17.2579 25.5759 16.5731 24.6265 16.1094 23.5659C15.6456 22.5054 15.4135 21.3581 15.4286 20.2006C15.4286 15.4235 19.1714 11.8864 24 11.8864ZM18.8529 22.6321C18.8019 22.7128 18.781 22.8088 18.7936 22.9034C18.8062 22.9979 18.8517 23.0851 18.922 23.1495C18.9924 23.214 19.0831 23.2517 19.1785 23.2561C19.2738 23.2605 19.3676 23.2313 19.4436 23.1735L22.1479 21.1206C22.2372 21.0534 22.346 21.0171 22.4579 21.0171C22.5697 21.0171 22.6785 21.0534 22.7679 21.1206L24.7679 22.6206C24.9099 22.7269 25.0725 22.8025 25.2452 22.8429C25.4179 22.8832 25.5972 22.8874 25.7716 22.8551C25.946 22.8229 26.1119 22.7549 26.2588 22.6554C26.4056 22.5559 26.5303 22.4271 26.625 22.2771L29.1429 18.2828C29.1938 18.2021 29.2148 18.1061 29.2021 18.0115C29.1895 17.9169 29.144 17.8298 29.0737 17.7653C29.0033 17.7008 28.9126 17.6631 28.8173 17.6587C28.7219 17.6544 28.6281 17.6836 28.5521 17.7414L25.8479 19.7942C25.7585 19.8614 25.6497 19.8978 25.5379 19.8978C25.426 19.8978 25.3172 19.8614 25.2279 19.7942L23.2279 18.2942C23.0858 18.188 22.9233 18.1123 22.7505 18.072C22.5778 18.0316 22.3986 18.0274 22.2241 18.0597C22.0497 18.092 21.8838 18.16 21.737 18.2595C21.5901 18.359 21.4654 18.4878 21.3707 18.6378L18.8529 22.6321Z" fill="white"/>
</g>
<defs>
<filter id="filter0_d_15_179" x="0" y="0.427795" width="48" height="48" filterUnits="userSpaceOnUse" color-interpolation-filters="sRGB">
<feFlood flood-opacity="0" result="BackgroundImageFix"/>
<feColorMatrix in="SourceAlpha" type="matrix" values="0 0 0 0 0 0 0 0 0 0 0 0 0 0 0 0 0 0 127 0" result="hardAlpha"/>
<feOffset dy="4"/>
<feGaussianBlur stdDeviation="2"/>
<feComposite in2="hardAlpha" operator="out"/>
<feColorMatrix type="matrix" values="0 0 0 0 0 0 0 0 0 0 0 0 0 0 0 0 0 0 0.25 0"/>
<feBlend mode="normal" in2="BackgroundImageFix" result="effect1_dropShadow_15_179"/>
<feBlend mode="normal" in="SourceGraphic" in2="effect1_dropShadow_15_179" result="shape"/>
</filter>
</defs>
</svg>
