<svg width="31" height="30" viewBox="0 0 31 30" fill="none" xmlns="http://www.w3.org/2000/svg">
<g id="Frame">
<path id="Vector" d="M9.52146 27.0536C9.07788 27.0536 8.71788 26.6936 8.71788 26.25C8.71788 25.8065 9.07788 25.4465 9.52146 25.4465H20.7715C21.215 25.4465 21.575 25.8065 21.575 26.25C21.575 26.6936 21.215 27.0536 20.7715 27.0536H9.52146ZM18.5354 13.7636L13.0625 17.0604C12.5654 17.3593 11.9322 17.0025 11.9322 16.4218V9.82719C11.9322 9.24754 12.5654 8.88969 13.0625 9.18862L18.5354 12.4865C19.0165 12.7758 19.0165 13.4733 18.5354 13.7636ZM23.45 21.6965C24.7807 21.6965 25.8607 20.6165 25.8607 19.2858V6.96433C25.8607 5.63362 24.7807 4.55362 23.45 4.55362H6.84288C5.51217 4.55362 4.43217 5.63362 4.43217 6.96433V19.2858C4.43217 20.6165 5.51217 21.6965 6.84288 21.6965H23.45ZM23.45 23.3036H6.84288C4.62396 23.3036 2.82503 21.5047 2.82503 19.2858V6.96433C2.82503 4.7454 4.62396 2.94647 6.84288 2.94647H23.45C25.669 2.94647 27.4679 4.7454 27.4679 6.96433V19.2858C27.4679 21.5047 25.669 23.3036 23.45 23.3036Z" fill="white"/>
</g>
</svg>
